<svg width="78" height="77" viewBox="0 0 78 77" fill="none" xmlns="http://www.w3.org/2000/svg">
<path d="M37.1247 43.3042C37.6268 42.8535 38.2783 42.5991 38.9569 42.589C39.6355 42.5789 40.2945 42.8136 40.8102 43.2493L41.0609 43.4885L62.6223 66.8993C62.9669 67.2734 63.2003 67.734 63.2969 68.2306C63.3936 68.7271 63.3496 69.2403 63.17 69.7139C62.9903 70.1874 62.6819 70.6028 62.2786 70.9145C61.8753 71.2262 61.3928 71.4222 60.884 71.4808L60.5609 71.5H17.4408C16.9306 71.5004 16.43 71.3625 15.9938 71.1013C15.5575 70.8401 15.2023 70.4656 14.9669 70.0187C14.7315 69.5718 14.625 69.0697 14.6589 68.5671C14.6928 68.0646 14.8659 67.5808 15.1593 67.1687L15.3794 66.8993L36.9408 43.4885C36.9991 43.4243 37.0605 43.3628 37.1247 43.3042ZM38.9995 5.5C59.0009 5.5 75.2138 21.505 75.2138 41.25C75.2263 49.9137 72.0392 58.2847 66.2493 64.7955L65.9958 64.4518L65.7117 64.1245L63.458 61.677C68.3618 55.9728 71.0479 48.7314 71.0352 41.25C71.0352 23.7847 56.6915 9.625 38.9995 9.625C21.3074 9.625 6.96376 23.7847 6.96376 41.25C6.96376 49.0353 9.81354 56.166 14.5409 61.6743L12.2845 64.1245C12.09 64.3409 11.9191 64.5768 11.7747 64.8285C5.97034 58.3115 2.77398 49.9278 2.78519 41.25C2.78519 21.505 18.998 5.5 38.9995 5.5ZM38.9995 16.5C43.7025 16.4998 48.3107 17.8054 52.2978 20.2677C56.2849 22.7301 59.49 26.2498 61.547 30.4249C63.604 34.6 64.4299 39.2621 63.9304 43.8786C63.4309 48.495 61.6262 52.8797 58.7223 56.5317L55.8642 53.4298C58.1423 50.3551 59.5133 46.7178 59.8253 42.9209C60.1373 39.1241 59.378 35.3161 57.6317 31.9192C55.8853 28.5223 53.2201 25.6693 49.9316 23.6763C46.6431 21.6833 42.8596 20.6284 39.0009 20.6284C35.1421 20.6284 31.3587 21.6833 28.0701 23.6763C24.7816 25.6693 22.1164 28.5223 20.3701 31.9192C18.6237 35.3161 17.8644 39.1241 18.1764 42.9209C18.4884 46.7178 19.8594 50.3551 22.1375 53.4298L19.2766 56.5317C16.3728 52.8797 14.568 48.495 14.0685 43.8786C13.569 39.2621 14.395 34.6 16.452 30.4249C18.509 26.2498 21.7141 22.7301 25.7011 20.2677C29.6882 17.8054 34.2965 16.4998 38.9995 16.5ZM38.9995 27.5C41.4504 27.4995 43.8581 28.1374 45.9794 29.3494C48.1007 30.5614 49.8605 32.3045 51.0811 34.4027C52.3016 36.5009 52.9397 38.8798 52.9309 41.2994C52.9221 43.7189 52.2667 46.0933 51.031 48.1828L48.0224 44.9102C48.63 43.4484 48.8638 41.8613 48.7029 40.2892C48.542 38.717 47.9916 37.2082 47.1001 35.8958C46.2086 34.5834 45.0035 33.5079 43.5912 32.7642C42.179 32.0204 40.6029 31.6314 39.0023 31.6314C37.4016 31.6314 35.8256 32.0204 34.4133 32.7642C33.001 33.5079 31.7959 34.5834 30.9044 35.8958C30.0129 37.2082 29.4625 38.717 29.3016 40.2892C29.1408 41.8613 29.3745 43.4484 29.9821 44.9102L26.9652 48.18C25.73 46.0904 25.0752 43.716 25.0669 41.2967C25.0585 38.8773 25.697 36.4986 26.9178 34.4008C28.1386 32.3029 29.8985 30.5602 32.0198 29.3486C34.1411 28.1369 36.5487 27.4993 38.9995 27.5Z" fill="white"/>
</svg>
