<svg width="79" height="75" viewBox="0 0 79 75" fill="none" xmlns="http://www.w3.org/2000/svg">
<path d="M39.4987 35.9375H16.457V32.8125H39.4987V35.9375ZM16.457 29.6875H39.4987V26.5625H16.457V29.6875ZM39.4987 42.1875H16.457V39.0625H39.4987V42.1875ZM16.457 48.4375H39.4987V45.3125H16.457V48.4375ZM46.082 42.875C46.0818 42.4126 46.1897 41.9559 46.398 41.5378C46.6062 41.1198 46.9096 40.7508 47.2862 40.4576C47.6628 40.1643 48.1032 39.9541 48.5758 39.842C49.0484 39.7299 49.5412 39.7187 50.0189 39.8094L53.666 40.5031C54.0919 40.5839 54.5305 40.5839 54.9564 40.5031L58.6035 39.8094C59.0812 39.7187 59.574 39.7299 60.0466 39.842C60.5192 39.9541 60.9596 40.1643 61.3362 40.4576C61.7128 40.7508 62.0162 41.1198 62.2244 41.5378C62.4326 41.9559 62.5406 42.4126 62.5404 42.875V50H46.082V42.875ZM54.3112 37.5C56.0572 37.5 57.7317 36.8415 58.9663 35.6694C60.2009 34.4973 60.8945 32.9076 60.8945 31.25C60.8945 29.5924 60.2009 28.0027 58.9663 26.8306C57.7317 25.6585 56.0572 25 54.3112 25C52.5652 25 50.8907 25.6585 49.6561 26.8306C48.4215 28.0027 47.7279 29.5924 47.7279 31.25C47.7279 32.9076 48.4215 34.4973 49.6561 35.6694C50.8907 36.8415 52.5652 37.5 54.3112 37.5Z" fill="white"/>
<path fill-rule="evenodd" clip-rule="evenodd" d="M11.5195 15.625C10.21 15.625 8.95415 16.1189 8.02819 16.9979C7.10223 17.877 6.58203 19.0693 6.58203 20.3125V54.6875C6.58203 55.9307 7.10223 57.123 8.02819 58.0021C8.95415 58.8811 10.21 59.375 11.5195 59.375H67.4779C68.7874 59.375 70.0432 58.8811 70.9692 58.0021C71.8952 57.123 72.4154 55.9307 72.4154 54.6875V20.3125C72.4154 19.0693 71.8952 17.877 70.9692 16.9979C70.0432 16.1189 68.7874 15.625 67.4779 15.625H11.5195ZM67.4779 18.75H11.5195C11.083 18.75 10.6644 18.9146 10.3558 19.2076C10.0471 19.5007 9.8737 19.8981 9.8737 20.3125V54.6875C9.8737 55.1019 10.0471 55.4993 10.3558 55.7924C10.6644 56.0854 11.083 56.25 11.5195 56.25H67.4779C67.9144 56.25 68.333 56.0854 68.6416 55.7924C68.9503 55.4993 69.1237 55.1019 69.1237 54.6875V20.3125C69.1237 19.8981 68.9503 19.5007 68.6416 19.2076C68.333 18.9146 67.9144 18.75 67.4779 18.75Z" fill="white"/>
</svg>
