<svg width="24" height="24" viewBox="0 0 24 24" fill="none" xmlns="http://www.w3.org/2000/svg">
<path d="M1 1H23V11H21V3H3V16H12V18H1V1ZM18.5 14C17.7707 14 17.0712 14.2897 16.5555 14.8055C16.0397 15.3212 15.75 16.0207 15.75 16.75C15.75 18.002 16.485 19.204 17.365 20.172C17.772 20.62 18.182 20.986 18.5 21.247C18.818 20.987 19.228 20.62 19.635 20.172C20.515 19.204 21.25 18.002 21.25 16.75C21.25 16.0207 20.9603 15.3212 20.4445 14.8055C19.9288 14.2897 19.2293 14 18.5 14ZM18.5 23.701L17.945 23.332L17.943 23.331L17.939 23.328L17.927 23.32L17.887 23.293L17.75 23.195C17.0757 22.6974 16.4512 22.1358 15.885 21.518C14.89 20.424 13.75 18.751 13.75 16.75C13.75 15.4902 14.2504 14.282 15.1412 13.3912C16.032 12.5004 17.2402 12 18.5 12C19.7598 12 20.968 12.5004 21.8588 13.3912C22.7496 14.282 23.25 15.4902 23.25 16.75C23.25 18.751 22.11 20.424 21.115 21.518C20.5104 22.1766 19.8396 22.7711 19.113 23.292L19.073 23.32L19.061 23.328L19.057 23.331H19.055L18.5 23.701ZM17.25 16H19.75V18H17.25V16ZM2.25 21H12V23H2.25V21Z" fill="#DE1F3B"/>
</svg>
