<svg width="65" height="67" viewBox="0 0 65 67" fill="none" xmlns="http://www.w3.org/2000/svg">
<path d="M37.9154 51.13C34.9448 49.6712 32.3912 47.4448 30.5027 44.6673H8.1237V11.1673H56.8737V17.4876C59.0679 19.0743 60.9135 21.1193 62.2904 23.4897V11.1673C62.2861 9.68788 61.714 8.27031 60.6991 7.22419C59.6842 6.17806 58.309 5.5884 56.8737 5.58398H8.1237C6.68843 5.5884 5.31317 6.17806 4.29827 7.22419C3.28338 8.27031 2.71132 9.68788 2.70703 11.1673V44.6673C2.71132 46.1467 3.28338 47.5643 4.29827 48.6105C5.31317 49.6566 6.68843 50.2462 8.1237 50.2506H27.082V55.834H21.6654V61.4173H43.332V55.834H37.9154V51.13Z" fill="white"/>
<path d="M46.043 16.75C42.829 16.75 39.6873 17.7324 37.015 19.5729C34.3427 21.4134 32.2599 24.0294 31.0299 27.0901C29.8 30.1507 29.4782 33.5186 30.1052 36.7678C30.7322 40.0169 32.2799 43.0015 34.5525 45.344C36.8251 47.6866 39.7206 49.2819 42.8728 49.9282C46.0249 50.5745 49.2923 50.2428 52.2616 48.975C55.2309 47.7072 57.7688 45.5603 59.5544 42.8058C61.3399 40.0513 62.293 36.8128 62.293 33.5C62.293 29.0576 60.5809 24.7972 57.5335 21.656C54.486 18.5147 50.3527 16.75 46.043 16.75ZM46.043 44.6667C43.9003 44.6667 41.8058 44.0118 40.0243 42.7847C38.2428 41.5577 36.8542 39.8137 36.0343 37.7733C35.2143 35.7329 34.9998 33.4876 35.4178 31.3215C35.8358 29.1554 36.8676 27.1657 38.3827 25.604C39.8977 24.0423 41.828 22.9788 43.9295 22.5479C46.031 22.117 48.2092 22.3382 50.1887 23.1833C52.1682 24.0285 53.8602 25.4598 55.0506 27.2961C56.2409 29.1325 56.8763 31.2914 56.8763 33.5C56.8727 36.4605 55.7302 39.2986 53.6993 41.3919C51.6685 43.4853 48.9151 44.663 46.043 44.6667Z" fill="white"/>
<path d="M46.0404 36.2923C47.5361 36.2923 48.7487 35.0424 48.7487 33.5007C48.7487 31.9589 47.5361 30.709 46.0404 30.709C44.5446 30.709 43.332 31.9589 43.332 33.5007C43.332 35.0424 44.5446 36.2923 46.0404 36.2923Z" fill="white"/>
</svg>
