<svg width="75" height="73" viewBox="0 0 75 73" fill="none" xmlns="http://www.w3.org/2000/svg">
<path d="M18.75 24.3327C18.75 22.7193 19.4085 21.172 20.5806 20.0311C21.7527 18.8903 23.3424 18.2493 25 18.2493C26.6576 18.2493 28.2473 18.8903 29.4194 20.0311C30.5915 21.172 31.25 22.7193 31.25 24.3327C31.25 25.9461 30.5915 27.4934 29.4194 28.6342C28.2473 29.7751 26.6576 30.416 25 30.416C23.3424 30.416 21.7527 29.7751 20.5806 28.6342C19.4085 27.4934 18.75 25.9461 18.75 24.3327ZM25 12.166C21.6848 12.166 18.5054 13.4479 16.1612 15.7295C13.817 18.0112 12.5 21.1059 12.5 24.3327C12.5 27.5595 13.817 30.6541 16.1612 32.9358C18.5054 35.2175 21.6848 36.4993 25 36.4993C28.3152 36.4993 31.4946 35.2175 33.8388 32.9358C36.183 30.6541 37.5 27.5595 37.5 24.3327C37.5 21.1059 36.183 18.0112 33.8388 15.7295C31.4946 13.4479 28.3152 12.166 25 12.166ZM50 27.3743C50 26.5676 50.3292 25.794 50.9153 25.2236C51.5013 24.6531 52.2962 24.3327 53.125 24.3327C53.9538 24.3327 54.7487 24.6531 55.3347 25.2236C55.9208 25.794 56.25 26.5676 56.25 27.3743C56.25 28.181 55.9208 28.9547 55.3347 29.5251C54.7487 30.0956 53.9538 30.416 53.125 30.416C52.2962 30.416 51.5013 30.0956 50.9153 29.5251C50.3292 28.9547 50 28.181 50 27.3743ZM53.125 18.2493C50.6386 18.2493 48.254 19.2107 46.4959 20.922C44.7377 22.6333 43.75 24.9542 43.75 27.3743C43.75 29.7944 44.7377 32.1154 46.4959 33.8267C48.254 35.538 50.6386 36.4993 53.125 36.4993C55.6114 36.4993 57.996 35.538 59.7541 33.8267C61.5123 32.1154 62.5 29.7944 62.5 27.3743C62.5 24.9542 61.5123 22.6333 59.7541 20.922C57.996 19.2107 55.6114 18.2493 53.125 18.2493ZM6.25 50.1868C6.25 45.9893 9.75 42.5827 14.0625 42.5827H35.9375C40.25 42.5827 43.75 45.9893 43.75 50.1868V50.4788C43.7458 50.7006 43.7291 50.922 43.7 51.1419C43.6421 51.6746 43.5482 52.203 43.4188 52.7236C42.9967 54.406 42.2432 55.9927 41.2 57.3956C38.55 60.9422 33.6125 63.8743 25 63.8743C16.3875 63.8743 11.45 60.9422 8.8 57.3956C7.43456 55.5515 6.57418 53.3993 6.3 51.1419L6.25 50.4728V50.1868ZM12.5 50.345L12.5125 50.5093C12.5292 50.6837 12.5771 50.9452 12.6563 51.294C12.825 51.9814 13.1688 52.9 13.8562 53.8186C15.1062 55.4976 17.9812 57.791 25 57.791C32.0187 57.791 34.8875 55.4976 36.1437 53.8186C36.8951 52.7957 37.3623 51.6013 37.5 50.3511V50.1868C37.5 49.7835 37.3354 49.3967 37.0424 49.1115C36.7493 48.8262 36.3519 48.666 35.9375 48.666H14.0625C13.6481 48.666 13.2507 48.8262 12.9576 49.1115C12.6646 49.3967 12.5 49.7835 12.5 50.1868V50.345ZM53.1187 60.8327C50.9062 60.8246 48.9625 60.6218 47.2875 60.2243C48.4259 58.4663 49.2363 56.5263 49.6812 54.4938C50.6479 54.6561 51.7937 54.7412 53.1187 54.7493C58.6812 54.7493 60.7938 53.0947 61.6188 52.0909C62.0709 51.5314 62.3717 50.8705 62.4937 50.1686V50.1382C62.4808 49.7433 62.3104 49.3689 62.0188 49.0941C61.7272 48.8193 61.3371 48.6658 60.9312 48.666H49.9125C49.6654 46.4893 48.8828 44.4026 47.6312 42.5827H60.9375C65.25 42.5827 68.75 45.9893 68.75 50.1868V50.2903C68.7445 50.4794 68.7299 50.6682 68.7062 50.856C68.459 52.6972 67.6982 54.4372 66.5062 55.8869C64.2 58.6853 60.0687 60.8327 53.125 60.8327" fill="white"/>
</svg>
